<?xml version="1.0" encoding="utf-8"?>
<!-- Generator: Adobe Illustrator 16.0.3, SVG Export Plug-In . SVG Version: 6.00 Build 0)  -->
<!DOCTYPE svg PUBLIC "-//W3C//DTD SVG 1.1//EN" "http://www.w3.org/Graphics/SVG/1.1/DTD/svg11.dtd">
<svg version="1.1" id="Capa_1" xmlns="http://www.w3.org/2000/svg" xmlns:xlink="http://www.w3.org/1999/xlink" x="0px" y="0px"
	 width="72px" height="72px" viewBox="0 0 72 72" enable-background="new 0 0 72 72" xml:space="preserve">
<g>
	<path fill-rule="evenodd" clip-rule="evenodd" fill="#FFFFFF" d="M37.076,70C18.904,69.905,4.193,55.2,4.261,37.197
		C4.329,19.131,19.219,4.353,37.207,4.5C55.146,4.646,69.927,19.61,69.739,37.43C69.551,55.328,54.744,70.092,37.076,70z
		 M34.825,43.031c-2.748-2.762-5.285-5.338-7.852-7.882c-1.858-1.841-3.577-2.003-4.983-0.534c-1.369,1.431-1.213,3.038,0.562,4.836
		c3.212,3.253,6.443,6.489,9.697,9.701c2.05,2.021,3.798,1.869,5.661-0.438c2.312-2.869,4.605-5.751,6.909-8.626
		c2.943-3.674,5.92-7.322,8.816-11.033c1.158-1.483,0.923-3.316-0.373-4.402c-1.272-1.064-3.087-0.863-4.395,0.516
		c-0.327,0.344-0.592,0.748-0.886,1.123C43.646,31.812,39.307,37.33,34.825,43.031z"/>
</g>
</svg>
