<?xml version="1.0" encoding="utf-8"?>
<!-- Generator: Adobe Illustrator 16.0.3, SVG Export Plug-In . SVG Version: 6.00 Build 0)  -->
<!DOCTYPE svg PUBLIC "-//W3C//DTD SVG 1.1//EN" "http://www.w3.org/Graphics/SVG/1.1/DTD/svg11.dtd">
<svg version="1.1" id="Capa_1" xmlns="http://www.w3.org/2000/svg" xmlns:xlink="http://www.w3.org/1999/xlink" x="0px" y="0px"
	 width="72px" height="72px" viewBox="0 0 72 72" enable-background="new 0 0 72 72" xml:space="preserve">
<g>
	<path fill-rule="evenodd" clip-rule="evenodd" fill="#FFFFFF" d="M2.708,71c-0.106-2.361-0.01-4.665,0.396-6.949
		c1.789-10.059,7.053-17.764,15.711-23.169c0.532-0.334,1.117-0.583,1.629-0.936c0.455-0.307,0.759-0.22,1.155,0.104
		c2.417,1.989,5.129,3.437,8.151,4.242c7.179,1.909,13.769,0.606,19.772-3.737c0.237-0.172,0.503-0.329,0.687-0.554
		c0.367-0.457,0.716-0.396,1.189-0.138c9.456,5.189,15.291,13.046,17.398,23.643c0.455,2.309,0.663,5.888,0.455,7.493
		C47.097,71,24.931,71,2.708,71z"/>
	<path fill-rule="evenodd" clip-rule="evenodd" fill="#FFFFFF" d="M16.829,22.506C16.838,11.972,25.371,3.483,35.929,3.5
		c10.476,0.017,18.975,8.545,18.956,19.021c-0.02,10.534-8.527,19.052-19.004,19.023C25.318,41.52,16.819,33.026,16.829,22.506z"/>
</g>
</svg>
