<?xml version="1.0" encoding="utf-8"?>
<!-- Generator: Adobe Illustrator 16.0.3, SVG Export Plug-In . SVG Version: 6.00 Build 0)  -->
<!DOCTYPE svg PUBLIC "-//W3C//DTD SVG 1.1//EN" "http://www.w3.org/Graphics/SVG/1.1/DTD/svg11.dtd">
<svg version="1.1" id="Capa_1" xmlns="http://www.w3.org/2000/svg" xmlns:xlink="http://www.w3.org/1999/xlink" x="0px" y="0px"
	 width="72px" height="72px" viewBox="0 0 72 72" enable-background="new 0 0 72 72" xml:space="preserve">
<path fill="#FFFFFF" d="M37.25,2.5C55.891,2.5,71,17.614,71,36.252C71,54.889,55.891,70,37.25,70C18.613,70,3.5,54.889,3.5,36.252
	C3.5,17.614,18.613,2.5,37.25,2.5z M22.487,34.141c-1.167,0-2.115,0.945-2.115,2.111c0,1.164,0.947,2.109,2.115,2.109h24.438
	l-9.058,9.054c-0.821,0.826-0.821,2.159,0,2.982c0.826,0.824,2.158,0.824,2.982,0l12.656-12.653
	c0.823-0.822,0.828-2.162,0.007-2.985c-0.004,0-0.004,0-0.007,0L40.851,22.104c-0.824-0.825-2.156-0.825-2.982,0
	c-0.821,0.824-0.821,2.157,0,2.981l9.058,9.056H22.487z"/>
</svg>
