<?xml version="1.0" encoding="utf-8"?>
<!-- Generator: Adobe Illustrator 16.0.3, SVG Export Plug-In . SVG Version: 6.00 Build 0)  -->
<!DOCTYPE svg PUBLIC "-//W3C//DTD SVG 1.1//EN" "http://www.w3.org/Graphics/SVG/1.1/DTD/svg11.dtd">
<svg version="1.1" id="Capa_1" xmlns="http://www.w3.org/2000/svg" xmlns:xlink="http://www.w3.org/1999/xlink" x="0px" y="0px"
	 width="72px" height="72px" viewBox="0 0 72 72" enable-background="new 0 0 72 72" xml:space="preserve">
<path fill="#FFFFFF" d="M36.523,13.751c-5.584,0.017-10.989,2.03-15.226,5.682c-3.24,2.796-5.592,6.438-6.196,10.095
	c-7.096,1.565-12.459,7.75-12.459,15.216c0,8.674,7.231,15.591,16.01,15.591h37.719c7.688,0,14.026-6.057,14.026-13.661
	c0-6.929-5.26-12.578-11.995-13.528C57.369,22.218,47.911,13.751,36.523,13.751z M46.492,35.545c0.821,0.828,0.821,2.17,0,2.997
	c-0.828,0.828-2.171,0.828-2.999,0l-4.851-4.854v16.061c0,1.169-0.951,2.12-2.119,2.12c-1.169,0-2.116-0.951-2.116-2.12V33.688
	l-4.85,4.854c-0.833,0.828-2.175,0.828-3.005,0c-0.831-0.827-0.831-2.169,0-2.997l8.469-8.473c0.83-0.828,2.17-0.828,2.992,0h0.011
	L46.492,35.545z"/>
</svg>
