<?xml version="1.0" encoding="utf-8"?>
<!-- Generator: Adobe Illustrator 16.0.3, SVG Export Plug-In . SVG Version: 6.00 Build 0)  -->
<!DOCTYPE svg PUBLIC "-//W3C//DTD SVG 1.1//EN" "http://www.w3.org/Graphics/SVG/1.1/DTD/svg11.dtd">
<svg version="1.1" id="Capa_1" xmlns="http://www.w3.org/2000/svg" xmlns:xlink="http://www.w3.org/1999/xlink" x="0px" y="0px"
	 width="72px" height="72px" viewBox="0 0 72 72" enable-background="new 0 0 72 72" xml:space="preserve">
<path fill-rule="evenodd" clip-rule="evenodd" fill="#FFFFFF" d="M70.904,36.096C70.904,55.373,55.277,71,36,71
	S1.096,55.373,1.096,36.096S16.723,1.191,36,1.191S70.904,16.818,70.904,36.096z M26.552,10.828
	c-0.193,0.436-0.418,0.861-0.576,1.31c-0.329,0.931-0.868,1.125-1.854,0.888c-2.737-0.659-5.404-0.214-7.974,0.86
	C7.735,17.407,2.215,27.861,3.996,36.81c0.567,2.856,1.701,5.409,3.718,7.53c0.377,0.398,0.857,0.698,1.293,1.043
	c-5.118-8.246-3.456-15.602,2.565-22.334c2.71-3.032,6.262-4.575,10.618-4.337c-0.517,1.004-0.923,1.796-1.437,2.796
	c2.94-0.704,5.606-1.342,8.39-2.007c-0.806-2.973-1.576-5.824-2.35-8.673C26.715,10.828,26.634,10.828,26.552,10.828z
	 M45.266,69.311c0.015-0.113,0.057-0.237,0.037-0.354c-0.914-6.096,0.825-4.824-5.236-7.764c-3.714-1.801-7.202-3.895-10.326-6.591
	c-1.215-1.05-1.233-2.122-0.417-3.483c1.658-2.768,3.692-5.365,4.354-8.633c0.089-0.445,0.142-1.12-0.106-1.367
	c-0.78-0.775-0.677-1.684-0.681-2.607c-0.006-0.975,0.023-1.952-0.035-2.924c-0.236-3.976-2.374-6.627-6.227-7.554
	c-1.205-0.29-2.497-0.364-3.74-0.32c-4.551,0.163-7.8,3.029-8.225,7.267c-0.145,1.448-0.028,2.921-0.067,4.382
	c-0.011,0.388-0.03,0.898-0.266,1.134c-0.757,0.748-0.781,1.58-0.444,2.465c0.444,1.17,0.873,2.357,1.46,3.455
	c0.86,1.607,1.855,3.143,2.793,4.707c0.942,1.569,0.825,2.537-0.649,3.657c-2.314,1.76-4.692,3.437-7.097,5.188
	C20.083,70.362,35.121,72.65,45.266,69.311z M49.672,68.094c2.087-1.213,4.161-2.44,6.261-3.624
	c0.695-0.395,0.866-0.917,0.864-1.688c-0.031-7.311-0.018-14.621-0.018-21.932c0-0.426,0-0.852,0-1.416
	c2.558,1.074,4.91,2.168,7.339,3.043c1.529,0.551,2.118,1.335,2.008,3.01c-0.168,2.561-0.044,5.141-0.044,7.787
	c0.227-0.11,0.326-0.125,0.358-0.178c2.069-3.352,3.461-6.895,2.854-10.927c-0.073-0.481-0.539-1.081-0.983-1.296
	c-1.495-0.719-3.049-1.32-4.604-1.9c-0.802-0.3-1.145-0.746-1.094-1.628c0.077-1.417,0.016-2.841,0.068-4.262
	c0.028-0.752-0.249-1.171-0.944-1.491c-2.686-1.239-5.34-2.556-8.026-3.798c-0.688-0.318-0.98-0.751-0.96-1.497
	c0.051-1.785,0.04-3.571,0.097-5.356c0.028-0.789-0.23-1.26-0.988-1.595c-1.667-0.733-3.292-1.57-4.936-2.359
	c-3.281-1.574-6.562-3.144-9.874-4.73c-1.865,2.209-3.577,4.437-5.509,6.455c-1.461,1.527-1.979,3.149-1.923,5.24
	c0.055,1.893,0.256,3.301,1.997,4.593c2.751,2.041,3.309,5.213,3.301,8.519c-0.002,1.168,0.44,2.332,0.635,3.507
	c0.11,0.667,0.337,1.419,0.146,2.013c-0.559,1.724-1.21,3.43-2.001,5.06c-0.725,1.489-1.651,2.886-2.547,4.286
	c-0.426,0.668-0.303,1.076,0.315,1.512c1.26,0.889,2.477,1.84,3.723,2.746c0.562,0.408,1.152,0.773,1.929,1.292
	c0-14.241,0-28.189,0-42.326c4.271,2.059,8.392,4.036,12.498,6.042c0.247,0.122,0.534,0.47,0.544,0.725
	c0.055,1.316,0.024,2.637,0.024,4.119c-1.169-0.54-2.185-1.009-3.264-1.506c-2.351,2.788-4.694,5.53-6.976,8.329
	c-0.315,0.388-0.412,1.051-0.415,1.587c-0.025,7.676,0,15.354-0.037,23.029c-0.004,0.92,0.326,1.391,1.126,1.758
	c1.139,0.523,2.221,1.174,3.342,1.741c1.313,0.662,2.537,1.401,3.082,2.925c0-12.09,0-24.18,0-36.264
	c0.157-0.01,0.251-0.044,0.313-0.014c4.1,1.951,8.198,3.904,12.283,5.879c0.218,0.104,0.466,0.401,0.479,0.619
	c0.052,0.991,0.022,1.985,0.022,3.185c-0.885-0.377-1.598-0.575-2.188-0.959c-0.917-0.595-1.495-0.313-2.166,0.426
	c-1.804,1.98-3.728,3.851-5.497,5.861c-0.504,0.576-0.893,1.475-0.902,2.23c-0.074,5.971-0.041,11.941-0.041,17.912
	c0,1.659,0,3.318,0,4.98C49.452,67.867,49.563,67.98,49.672,68.094z"/>
</svg>
