<svg id="Layer_1" enable-background="new 0 0 497 497" height="512" viewBox="0 0 497 497" width="512" xmlns="http://www.w3.org/2000/svg"><g><path d="m347.9 66.267v-49.7c0-9.15-7.417-16.567-16.567-16.567h-298.2c-9.149 0-16.567 7.417-16.567 16.567v364.466c0 9.15 7.417 16.567 16.567 16.567h49.7z" fill="#bec8f7"/><path d="m331.333 0h-23c9.149 0 16.567 7.417 16.567 16.567v78.45l23-28.75v-49.7c0-9.15-7.417-16.567-16.567-16.567z" fill="#a2b6f4"/><path d="m414.167 480.433c0 9.149-7.417 16.567-16.567 16.567h-298.2c-9.149 0-16.567-7.417-16.567-16.567v-397.6c0-9.15 7.417-16.567 16.567-16.567h241.638c4.394 0 8.608 1.745 11.714 4.852l56.562 56.561c3.107 3.107 4.852 7.321 4.852 11.715v341.039z" fill="#e9efff"/><path d="m290.2 165.667h-83.4c-4.418 0-8-3.582-8-8v-17.133c0-4.418 3.582-8 8-8h83.4c4.418 0 8 3.582 8 8v17.133c0 4.418-3.582 8-8 8z" fill="#77dfff"/><g><path d="m364.466 206.044h-231.932c-4 0-7.243-3.243-7.243-7.244s3.243-7.244 7.243-7.244h231.933c4 0 7.243 3.243 7.243 7.244s-3.244 7.244-7.244 7.244z" fill="#5b7fa0"/></g><g><path d="m364.466 239.177h-231.932c-4 0-7.243-3.243-7.243-7.244s3.243-7.244 7.243-7.244h231.933c4 0 7.243 3.243 7.243 7.244s-3.244 7.244-7.244 7.244z" fill="#5b7fa0"/></g><g><path d="m364.466 272.311h-231.932c-4 0-7.243-3.243-7.243-7.244 0-4 3.243-7.244 7.243-7.244h231.933c4 0 7.243 3.243 7.243 7.244-.001 4-3.244 7.244-7.244 7.244z" fill="#5b7fa0"/></g><path d="m409.314 127.68-56.562-56.561c-3.107-3.107-7.321-4.852-11.714-4.852h-23c4.394 0 8.608 1.745 11.714 4.852l56.562 56.561c3.107 3.107 4.852 7.321 4.852 11.715v341.039c0 9.15-7.417 16.567-16.567 16.567h23c9.149 0 16.567-7.417 16.567-16.567v-341.039c.001-4.394-1.745-8.608-4.852-11.715z" fill="#bec8f7"/><path d="m409.314 127.68-56.562-56.561c-1.415-1.415-3.066-2.531-4.853-3.344v48.192c0 9.149 7.417 16.567 16.567 16.567h48.192c-.813-1.787-1.929-3.439-3.344-4.854z" fill="#bec8f7"/><path d="m350.716 69.41c-.094-.068-.185-.142-.28-.207-.391-.267-.793-.518-1.205-.75-.008-.004-.015-.009-.023-.014-.426-.24-.862-.461-1.307-.664 0 0-.001 0-.001-.001v21.492l38.414 38.414c1.415 1.415 2.531 3.066 3.345 4.853h23c-.203-.445-.424-.882-.665-1.309-.003-.006-.007-.012-.011-.018-.233-.413-.484-.816-.753-1.209-.065-.094-.138-.184-.205-.277-.219-.306-.44-.611-.681-.902-.326-.393-.667-.774-1.031-1.138l-56.562-56.561c-.364-.364-.745-.705-1.138-1.031-.289-.239-.592-.46-.897-.678z" fill="#a2b6f4"/><path d="m290.2 132.533h-23c4.418 0 8 3.582 8 8v17.133c0 4.418-3.582 8-8 8h23c4.418 0 8-3.582 8-8v-17.133c0-4.418-3.582-8-8-8z" fill="#69cdff"/><g><path d="m206.8 430.733h265.634c4.418 0 8-3.582 8-8v-116.533c0-4.418-3.582-8-8-8h-265.634c-4.418 0-8 3.582-8 8v116.533c0 4.419 3.582 8 8 8z" fill="#ff6c6c"/><g><g><path d="m230.898 404.844c-4 0-7.244-3.243-7.244-7.244v-57.983c0-8.561 6.965-15.527 15.527-15.527h24.382c13 0 23.653 9.958 24.251 22.668.309 6.58-2.018 12.821-6.554 17.576-4.472 4.688-10.752 7.376-17.229 7.376h-25.89v25.89c.001 4.001-3.243 7.244-7.243 7.244zm7.244-47.621h25.89c2.574 0 4.97-1.026 6.747-2.889 1.776-1.861 2.687-4.31 2.565-6.895-.23-4.887-4.618-8.862-9.78-8.862h-24.382c-.573 0-1.04.466-1.04 1.04z" fill="#e9efff"/></g><g><path d="m338.581 404.844h-16.567c-8.561 0-15.527-6.965-15.527-15.527v-49.7c0-8.561 6.965-15.527 15.527-15.527h16.567c17.695 0 32.092 14.396 32.094 32.091v16.571c-.002 17.696-14.399 32.092-32.094 32.092zm-16.566-66.267c-.573 0-1.039.466-1.039 1.04v49.7c0 .573.466 1.04 1.039 1.04h16.567c9.707 0 17.606-7.897 17.606-17.605v-16.57c0-9.707-7.899-17.604-17.606-17.604h-16.567z" fill="#e9efff"/></g><g><path d="m396.565 404.844c-4.001 0-7.244-3.243-7.244-7.244v-57.983c0-8.561 6.966-15.527 15.527-15.527h42.452c4.001 0 7.244 3.243 7.244 7.244s-3.243 7.244-7.244 7.244h-42.452c-.574 0-1.04.466-1.04 1.04v57.982c0 4.001-3.243 7.244-7.243 7.244z" fill="#e9efff"/></g><g><path d="m429.698 371.71h-33.133c-4.001 0-7.244-3.243-7.244-7.244 0-4 3.243-7.244 7.244-7.244h33.133c4 0 7.244 3.243 7.244 7.244-.001 4.001-3.244 7.244-7.244 7.244z" fill="#e9efff"/></g></g><path d="m472.433 298.2h-23c4.418 0 8 3.582 8 8v116.533c0 4.418-3.582 8-8 8h23c4.418 0 8-3.582 8-8v-116.533c0-4.418-3.581-8-8-8z" fill="#f74242"/></g></g></svg>